<svg width="300" height="64" viewBox="0 0 300 64" fill="none" xmlns="http://www.w3.org/2000/svg">
<rect width="300" height="64" fill="white"/>
<path d="M12.28 15.8H13.496V20.872H19.288V15.8H20.504V27H19.288V21.96H13.496V27H12.28V15.8ZM22.7413 25.688V23.656L24.0533 22.36H28.3093V20.84L27.5093 20.056H24.7893L23.9893 20.84V21.496H22.8053V20.504L24.2773 19.032H28.0053L29.4773 20.504V27H28.3413V25.592L26.8693 27H24.0533L22.7413 25.688ZM26.6293 25.976L28.3093 24.36V23.384H24.5653L23.9253 24.008V25.352L24.5653 25.976H26.6293ZM30.6775 19.032H31.8935L34.2615 25.816H34.3255L36.6935 19.032H37.9095L34.9815 27H33.6055L30.6775 19.032ZM39.2763 17.208V16.504L39.7563 16.024H40.4603L40.9403 16.504V17.208L40.4603 17.688H39.7563L39.2763 17.208ZM39.5163 19.032H40.7003V27H39.5163V19.032ZM43.2625 19.032H44.4145V20.728L46.1105 19.032H48.5585L50.0305 20.504V27H48.8465V20.872L48.0465 20.088H46.4305L44.4465 22.072V27H43.2625V19.032ZM59.2362 19.032V29.032L57.7803 30.488H53.8283L52.5963 29.256V28.28H53.7803V28.872L54.3403 29.432H57.2523L58.0523 28.648V25.672L56.5803 27H53.6683L52.1963 25.528V20.504L53.6683 19.032H56.6923L58.0843 20.424V19.032H59.2362ZM58.0523 21.768L56.3723 20.088H54.1803L53.3803 20.872V25.16L54.1803 25.944H56.3883L58.0523 24.392V21.768ZM66.2638 25.528V20.072H64.8238V19.032H66.2958V16.44H67.4478V19.032H69.9438V20.072H67.4478V25.16L68.2478 25.96H69.9438V27H67.7358L66.2638 25.528ZM71.7781 19.032H72.9301V20.456L74.3541 19.032H76.4181V20.088H74.6581L72.9621 21.784V27H71.7781V19.032ZM77.3681 25.528V20.504L78.8401 19.032H82.9361L84.4081 20.504V25.528L82.9361 27H78.8401L77.3681 25.528ZM82.4241 25.944L83.2241 25.16V20.872L82.4241 20.088H79.3521L78.5521 20.872V25.16L79.3521 25.944H82.4241ZM86.5731 25.528V19.032H87.7571V25.16L88.5571 25.944H90.1571L92.1411 23.96V19.032H93.3251V27H92.1731V25.304L90.4771 27H88.0451L86.5731 25.528ZM95.7313 25.528V15.576H96.9153V20.584L98.4673 19.032H101.267L102.739 20.504V25.528L101.267 27H97.2033L95.7313 25.528ZM100.755 25.944L101.555 25.16V20.872L100.755 20.088H98.8033L96.9153 21.976V25.16L97.7153 25.944H100.755ZM105.061 15.576H106.245V27H105.061V15.576ZM108.571 25.528V20.504L110.043 19.032H114.059L115.547 20.504V23.368H109.755V25.16L110.555 25.944H113.547L114.347 25.16V24.552H115.531V25.528L114.059 27H110.043L108.571 25.528ZM114.363 22.344V20.872L113.563 20.088H110.555L109.755 20.872V22.344H114.363ZM11.8 46.688V45.696H12.984V46.352L13.624 46.976H16.568L17.208 46.352V45.12L16.568 44.48H13.128L11.864 43.216V41.344L13.176 40.032H16.92L18.232 41.344V42.336H17.048V41.68L16.408 41.056H13.688L13.048 41.68V42.848L13.688 43.488H17.08L18.392 44.8V46.688L17.08 48H13.112L11.8 46.688ZM20.2275 46.528V41.504L21.6995 40.032H25.7155L27.2035 41.504V44.368H21.4115V46.16L22.2115 46.944H25.2035L26.0035 46.16V45.552H27.1875V46.528L25.7155 48H21.6995L20.2275 46.528ZM26.0195 43.344V41.872L25.2195 41.088H22.2115L21.4115 41.872V43.344H26.0195ZM29.1963 46.528V41.504L30.6683 40.032H34.6843L36.1723 41.504V44.368H30.3803V46.16L31.1803 46.944H34.1723L34.9723 46.16V45.552H36.1562V46.528L34.6843 48H30.6683L29.1963 46.528ZM34.9883 43.344V41.872L34.1883 41.088H31.1803L30.3803 41.872V43.344H34.9883ZM38.245 38.208V37.504L38.725 37.024H39.429L39.909 37.504V38.208L39.429 38.688H38.725L38.245 38.208ZM38.485 40.032H39.669V48H38.485V40.032ZM42.2313 40.032H43.3832V41.728L45.0793 40.032H47.5273L48.9993 41.504V48H47.8153V41.872L47.0153 41.088H45.3993L43.4153 43.072V48H42.2313V40.032ZM58.205 40.032V50.032L56.749 51.488H52.797L51.565 50.256V49.28H52.749V49.872L53.309 50.432H56.221L57.021 49.648V46.672L55.549 48H52.637L51.165 46.528V41.504L52.637 40.032H55.661L57.053 41.424V40.032H58.205ZM57.021 42.768L55.341 41.088H53.149L52.349 41.872V46.16L53.149 46.944H55.357L57.021 45.392V42.768ZM71.3925 40.032V50.032L69.9365 51.488H65.9845L64.7525 50.256V49.28H65.9365V49.872L66.4965 50.432H69.4085L70.2085 49.648V46.672L68.7365 48H65.8245L64.3525 46.528V41.504L65.8245 40.032H68.8485L70.2405 41.424V40.032H71.3925ZM70.2085 42.768L68.5285 41.088H66.3365L65.5365 41.872V46.16L66.3365 46.944H68.5445L70.2085 45.392V42.768ZM73.7938 36.576H74.9778V41.696L76.6418 40.032H79.1218L80.5938 41.504V48H79.4098V41.872L78.6098 41.088H76.9618L74.9778 43.072V48H73.7938V36.576ZM82.7588 46.528V41.504L84.2308 40.032H88.3268L89.7987 41.504V46.528L88.3268 48H84.2308L82.7588 46.528ZM87.8148 46.944L88.6148 46.16V41.872L87.8148 41.088H84.7428L83.9428 41.872V46.16L84.7428 46.944H87.8148ZM91.6438 46.688V45.696H92.8278V46.352L93.4678 46.976H96.4118L97.0518 46.352V45.12L96.4118 44.48H92.9718L91.7078 43.216V41.344L93.0198 40.032H96.7638L98.0758 41.344V42.336H96.8918V41.68L96.2518 41.056H93.5318L92.8918 41.68V42.848L93.5318 43.488H96.9238L98.2358 44.8V46.688L96.9238 48H92.9557L91.6438 46.688ZM100.951 46.528V41.072H99.5113V40.032H100.983V37.44H102.135V40.032H104.631V41.072H102.135V46.16L102.935 46.96H104.631V48H102.423L100.951 46.528ZM105.988 46.688V45.696H107.172V46.352L107.812 46.976H110.756L111.396 46.352V45.12L110.756 44.48H107.316L106.052 43.216V41.344L107.364 40.032H111.108L112.42 41.344V42.336H111.236V41.68L110.596 41.056H107.876L107.236 41.68V42.848L107.876 43.488H111.268L112.58 44.8V46.688L111.268 48H107.299L105.988 46.688ZM116.943 42.976L119.823 40.192V38.928L118.735 37.856H116.223L115.199 38.864V39.52H114.015V38.496L115.711 36.8H119.247L121.007 38.56V40.512L118.095 43.328V45.424H116.943V42.976ZM116.767 47.568V46.928L117.199 46.496H117.839L118.271 46.928V47.568L117.839 48H117.199L116.767 47.568Z" fill="black"/>
<rect x="152" y="2" width="146" height="60" fill="#F9BD22"/>
<path d="M166.88 30.16V22.64L168.72 20.8H174.288L176.096 22.608V24.32H173.92V23.408L173.168 22.656H169.872L169.056 23.472V29.328L169.872 30.144H173.2L173.984 29.36V27.616H171.584V25.76H176.096V30.16L174.256 32H168.72L166.88 30.16ZM177.853 20.8H180.029V25.488H184.765V20.8H186.941V32H184.765V27.344H180.029V32H177.853V20.8ZM188.864 30.16V22.64L190.704 20.8H196.464L198.304 22.64V30.16L196.464 32H190.704L188.864 30.16ZM195.312 30.144L196.128 29.328V23.472L195.312 22.656H191.856L191.04 23.472V29.328L191.856 30.144H195.312ZM199.988 30.272V28.672H202.132V29.616L202.66 30.144H205.972L206.516 29.6V27.744L205.988 27.216H201.748L200.02 25.488V22.528L201.748 20.8H206.804L208.532 22.528V24.144H206.388V23.184L205.86 22.656H202.692L202.164 23.184V24.832L202.692 25.36H206.932L208.66 27.088V30.24L206.9 32H201.716L199.988 30.272ZM212.553 22.64H209.209V20.8H218.073V22.64H214.729V32H212.553V22.64ZM219.353 20.8H227.449V22.64H221.529V25.472H226.985V27.28H221.529V30.16H227.449V32H219.353V20.8ZM228.896 30.16V22.64L230.736 20.8H236.208L238.016 22.608V24.32H235.84V23.408L235.088 22.656H231.888L231.072 23.472V29.328L231.888 30.144H235.088L235.84 29.392V28.48H238.016V30.192L236.208 32H230.736L228.896 30.16ZM242.006 22.64H238.662V20.8H247.526V22.64H244.182V32H242.006V22.64ZM248.411 30.16V22.64L250.251 20.8H256.011L257.851 22.64V30.16L256.011 32H250.251L248.411 30.16ZM254.859 30.144L255.675 29.328V23.472L254.859 22.656H251.403L250.587 23.472V29.328L251.403 30.144H254.859ZM268.574 28.288V32H266.398V28.784L265.438 27.712H261.95V32H259.774V20.8H266.798L268.51 22.528V25.92L267.422 27.024L268.574 28.288ZM261.95 25.92H265.806L266.366 25.36V23.184L265.806 22.624H261.95V25.92ZM275.011 20.8H277.187V32H275.011V20.8ZM279.433 20.8H281.609V32H279.433V20.8Z" fill="black"/>
<path d="M152 42H286L298 62H152V42Z" fill="#F95122"/>
<path d="M192.04 45.8H199.064L200.664 47.4V50.536L200.024 51.192L201.16 52.344V55.272L199.432 57H192.04V45.8ZM197.944 50.488L198.52 49.912V48.184L197.96 47.624H194.168V50.488H197.944ZM198.328 55.176L199.016 54.488V52.92L198.328 52.232H194.168V55.176H198.328ZM202.599 55.32V49.032H204.711V54.664L205.255 55.208H206.535L208.103 53.64V49.032H210.215V57H208.263V55.64L206.887 57H204.279L202.599 55.32ZM219.7 49.032V58.824L217.972 60.536H213.78L212.292 59.064V57.976H214.404V58.456L214.708 58.776H217.044L217.588 58.216V55.816L216.404 57H213.764L212.052 55.272V49.032H214.164V54.648L214.708 55.208H216.1L217.588 53.624V49.032H219.7ZM226.056 45.8H228.008L233 53.4H233.032V45.8H235.128V57H233.176L228.184 49.416H228.152V57H226.056V45.8ZM236.972 55.336V50.696L238.62 49.032H243.196L244.844 50.696V55.336L243.196 57H238.62L236.972 55.336ZM242.172 55.24L242.732 54.68V51.352L242.172 50.792H239.644L239.084 51.352V54.68L239.644 55.24H242.172ZM245.804 49.032H247.948L248.86 54.056H248.924L250.364 49.032H252.284L253.612 54.056H253.676L254.684 49.032H256.828L254.764 57H252.796L251.324 51.624H251.26L249.692 57H247.724L245.804 49.032Z" fill="white"/>
</svg>
