<svg width="96" height="96" viewBox="0 0 96 96" fill="none" xmlns="http://www.w3.org/2000/svg">
<path fill-rule="evenodd" clip-rule="evenodd" d="M48 0H72H84L96 12V24V48V72V84L84 96H72H48H24H12L0 84V72V48V24V12L12 0H24H48ZM48 12H66H75L84 21V30V48V66V75L75 84H66H48H30H21L12 75V66V48V30V21L21 12H30H48Z" fill="#D9D9D9"/>
<path d="M66 12H48H30H21L12 21V30V48V66V75L21 84H30H48H66H75L84 75V66V48V30V21L75 12H66Z" fill="#2857FC" fill-opacity="0.1"/>
<rect x="21" y="2" width="55" height="8" fill="#F9BD22"/>
<path d="M26.33 7.31V4.49L27.02 3.8H29.108L29.786 4.478V5.12H28.97V4.778L28.688 4.496H27.452L27.146 4.802V6.998L27.452 7.304H28.7L28.994 7.01V6.356H28.094V5.66H29.786V7.31L29.096 8H27.02L26.33 7.31ZM30.4447 3.8H31.2607V5.558H33.0367V3.8H33.8527V8H33.0367V6.254H31.2607V8H30.4447V3.8ZM34.5741 7.31V4.49L35.2641 3.8H37.4241L38.1141 4.49V7.31L37.4241 8H35.2641L34.5741 7.31ZM36.9921 7.304L37.2981 6.998V4.802L36.9921 4.496H35.6961L35.3901 4.802V6.998L35.6961 7.304H36.9921ZM38.7453 7.352V6.752H39.5493V7.106L39.7473 7.304H40.9893L41.1933 7.1V6.404L40.9953 6.206H39.4053L38.7573 5.558V4.448L39.4053 3.8H41.3013L41.9493 4.448V5.054H41.1453V4.694L40.9473 4.496H39.7593L39.5613 4.694V5.312L39.7593 5.51H41.3493L41.9973 6.158V7.34L41.3373 8H39.3933L38.7453 7.352ZM43.4573 4.49H42.2033V3.8H45.5273V4.49H44.2733V8H43.4573V4.49ZM46.0072 3.8H49.0432V4.49H46.8232V5.552H48.8692V6.23H46.8232V7.31H49.0432V8H46.0072V3.8ZM49.5859 7.31V4.49L50.2759 3.8H52.3279L53.0059 4.478V5.12H52.1899V4.778L51.9079 4.496H50.7079L50.4019 4.802V6.998L50.7079 7.304H51.9079L52.1899 7.022V6.68H53.0059V7.322L52.3279 8H50.2759L49.5859 7.31ZM54.5022 4.49H53.2482V3.8H56.5722V4.49H55.3182V8H54.5022V4.49ZM56.9042 7.31V4.49L57.5942 3.8H59.7542L60.4442 4.49V7.31L59.7542 8H57.5942L56.9042 7.31ZM59.3222 7.304L59.6282 6.998V4.802L59.3222 4.496H58.0262L57.7202 4.802V6.998L58.0262 7.304H59.3222ZM64.4654 6.608V8H63.6494V6.794L63.2894 6.392H61.9814V8H61.1654V3.8H63.7994L64.4414 4.448V5.72L64.0334 6.134L64.4654 6.608ZM61.9814 5.72H63.4274L63.6374 5.51V4.694L63.4274 4.484H61.9814V5.72ZM66.879 3.8H67.695V8H66.879V3.8ZM68.5372 3.8H69.3532V8H68.5372V3.8Z" fill="black"/>
</svg>
