<svg width="22" height="56" viewBox="0 0 22 56" fill="none" xmlns="http://www.w3.org/2000/svg">
<path d="M6 0L0 2V53.9758L6 56V0Z" fill="#919191"/>
<circle cx="3" cy="52" r="1" fill="#5D5D5D"/>
<circle cx="3" cy="4" r="1" fill="#5D5D5D"/>
<circle cx="3" cy="28" r="1" fill="#F9BD22"/>
<circle cx="3" cy="31" r="1" fill="#F9BD22"/>
<circle cx="3" cy="25" r="1" fill="#F9BD22"/>
<mask id="path-7-inside-1_496_8" fill="white">
<path d="M6 0H22V56H6V0Z"/>
</mask>
<path d="M6 0H22V56H6V0Z" fill="#5D5D5D"/>
<path d="M6 0V-4H4V0H6ZM22 0H24V-4H22V0ZM22 56V60H24V56H22ZM6 56H4V60H6V56ZM6 4H22V-4H6V4ZM20 0V56H24V0H20ZM22 52H6V60H22V52ZM8 56V0H4V56H8Z" fill="#919191" mask="url(#path-7-inside-1_496_8)"/>
<path d="M10 4L17 6V7L10 5V4Z" fill="#A4A4A4"/>
<path d="M11 6L16 8V9L11 7V6Z" fill="#A4A4A4"/>
<rect x="10" y="4" width="8" height="1" fill="#D9D9D9"/>
<rect x="11" y="6" width="6" height="1" fill="#D9D9D9"/>
<rect x="12" y="8" width="4" height="1" fill="#D9D9D9"/>
<path d="M11.4142 50.5858C11.7893 50.2107 12.298 50 12.8284 50H15.1716C15.702 50 16.2107 50.2107 16.5858 50.5858L18 52H10L11.4142 50.5858Z" fill="#D9D9D9"/>
<rect x="13" y="49" width="2" height="1" fill="#A4A4A4"/>
</svg>
