<svg width="48" height="48" viewBox="0 0 48 48" fill="none" xmlns="http://www.w3.org/2000/svg">
<circle cx="6" cy="24" r="6" fill="black"/>
<circle cx="24" cy="6" r="6" fill="black"/>
<circle cx="24" cy="42" r="6" fill="black"/>
<path fill-rule="evenodd" clip-rule="evenodd" d="M40 9C40 8.44772 39.5523 8 39 8H9C8.44772 8 8 8.44772 8 9V39C8 39.5523 8.44772 40 9 40H39C39.5523 40 40 39.5523 40 39V31.0727C40 30.3825 39.3101 29.8971 38.6236 29.968C38.4186 29.9892 38.2106 30 38 30C34.6863 30 32 27.3137 32 24C32 20.6863 34.6863 18 38 18C38.2106 18 38.4186 18.0108 38.6236 18.032C39.3101 18.1029 40 17.6175 40 16.9273V9Z" fill="black"/>
</svg>
